<svg width="20" height="14" viewBox="0 0 20 14" fill="none" xmlns="http://www.w3.org/2000/svg">
<path d="M17.6577 4.65863L10.4624 0.504855C9.54241 -0.0259049 8.6032 -0.0928272 7.88475 0.321781C7.27322 0.674852 6.88477 1.34253 6.78246 2.18867L3.86559 0.504855C2.9456 -0.0259049 2.00639 -0.0928272 1.28794 0.321781C0.569491 0.736389 0.157959 1.5833 0.157959 2.64559V10.9539C0.157959 12.0162 0.569491 12.8631 1.28794 13.2777C1.59947 13.4577 1.95331 13.5469 2.32869 13.5469C2.81791 13.5469 3.34483 13.3954 3.86559 13.0946L6.78246 11.4108C6.88477 12.257 7.27322 12.9246 7.88475 13.2777C8.19628 13.4577 8.55012 13.5469 8.9255 13.5469C9.41472 13.5469 9.94164 13.3954 10.4624 13.0946L17.6577 8.94086C18.5776 8.4101 19.1053 7.62935 19.1053 6.80013C19.1053 5.97091 18.5776 5.19016 17.6577 4.65863ZM8.57551 1.51791C8.85473 1.35638 9.29088 1.4233 9.77164 1.70099L12.007 2.99174L8.13628 5.22631V2.64482C8.13628 2.08944 8.29628 1.67945 8.57551 1.51791ZM1.53947 2.64559C1.53947 2.09021 1.69947 1.67945 1.9787 1.51791C2.25792 1.35638 2.69407 1.4233 3.17483 1.70099L6.754 3.76788V6.02399L3.17483 8.09088C2.69407 8.36857 2.25792 8.43549 1.9787 8.27395C1.69947 8.11242 1.53947 7.70165 1.53947 7.14628V2.64559ZM16.9661 7.74396L9.77087 11.8977C9.29011 12.1754 8.85396 12.2423 8.57474 12.0808C8.29551 11.9193 8.13552 11.5085 8.13552 10.9531V10.6285L16.6846 5.69246L16.9661 5.85476C17.4469 6.13245 17.723 6.47629 17.723 6.79936C17.723 7.12243 17.4469 7.46627 16.9661 7.74396Z" fill="url(#paint0_linear_133_581)"/>
<defs>
<linearGradient id="paint0_linear_133_581" x1="13.0342" y1="13.5469" x2="2.46225" y2="6.26518" gradientUnits="userSpaceOnUse">
<stop stop-color="#8550DA"/>
<stop offset="1" stop-color="#5056DA"/>
</linearGradient>
</defs>
</svg>
